<svg width="150" height="150" viewBox="0 0 150 150" fill="none" xmlns="http://www.w3.org/2000/svg">
<path d="M52.9578 142.139C52.9578 146.479 49.4397 149.997 45.1 149.997C40.7602 149.997 37.2422 146.479 37.2422 142.139C37.2422 137.799 40.7602 134.281 45.1 134.281C49.4397 134.281 52.9578 137.799 52.9578 142.139Z" fill="#2488FF"/>
<path d="M82.9343 142.139C82.9343 146.479 79.4163 149.997 75.0765 149.997C70.7368 149.997 67.2188 146.479 67.2188 142.139C67.2188 137.799 70.7368 134.281 75.0765 134.281C79.4163 134.281 82.9343 137.799 82.9343 142.139Z" fill="#2488FF"/>
<path d="M112.911 142.139C112.911 146.479 109.393 149.997 105.053 149.997C100.713 149.997 97.1953 146.479 97.1953 142.139C97.1953 137.799 100.713 134.281 105.053 134.281C109.393 134.281 112.911 137.799 112.911 142.139Z" fill="#2488FF"/>
<path d="M75.2928 68.2266C75.4496 68.2266 75.6063 68.2275 75.7628 68.2288H75.0213V123.522H19.7813C21.6007 92.6598 45.7587 68.2266 75.2928 68.2266Z" fill="#005ECE"/>
<path d="M74.6838 68.2266C74.527 68.2266 74.3703 68.2275 74.2137 68.2288H74.9552V123.522H130.195C128.376 92.6598 104.218 68.2266 74.6838 68.2266Z" fill="#003F8A"/>
<path d="M75.0756 60.6509C58.6676 60.5725 45.3906 47.2479 45.3906 30.8215C45.3906 14.3951 58.6676 1.07056 75.0756 0.992188V60.6509Z" fill="#005ECE"/>
<path d="M75.0768 0.989756C91.4847 1.06813 104.762 14.3927 104.762 30.8191C104.762 47.2455 91.4847 60.5701 75.0768 60.6484L75.0768 0.989756Z" fill="#003F8A"/>
</svg>
